<svg width="26" height="26" viewBox="0 0 26 26" fill="none" xmlns="http://www.w3.org/2000/svg">
<path d="M0 19C0 18.4477 0.447715 18 1 18H7C7.55228 18 8 18.4477 8 19V25C8 25.5523 7.55228 26 7 26H1C0.447715 26 0 25.5523 0 25V19Z" fill="#C4C4C4"/>
<path d="M18 19C18 18.4477 18.4477 18 19 18H25C25.5523 18 26 18.4477 26 19V25C26 25.5523 25.5523 26 25 26H19C18.4477 26 18 25.5523 18 25V19Z" fill="#C4C4C4"/>
<path d="M9 19C9 18.4477 9.44772 18 10 18H16C16.5523 18 17 18.4477 17 19V25C17 25.5523 16.5523 26 16 26H10C9.44772 26 9 25.5523 9 25V19Z" fill="#C4C4C4"/>
<path d="M0 1C0 0.447715 0.447715 0 1 0H7C7.55228 0 8 0.447715 8 1V7C8 7.55228 7.55228 8 7 8H1C0.447715 8 0 7.55228 0 7V1Z" fill="#C4C4C4"/>
<path d="M18 1C18 0.447715 18.4477 0 19 0H25C25.5523 0 26 0.447715 26 1V7C26 7.55228 25.5523 8 25 8H19C18.4477 8 18 7.55228 18 7V1Z" fill="#C4C4C4"/>
<path d="M9 1C9 0.447715 9.44772 0 10 0H16C16.5523 0 17 0.447715 17 1V7C17 7.55228 16.5523 8 16 8H10C9.44772 8 9 7.55228 9 7V1Z" fill="#C4C4C4"/>
<path d="M0 10C0 9.44772 0.447715 9 1 9H7C7.55228 9 8 9.44772 8 10V16C8 16.5523 7.55228 17 7 17H1C0.447715 17 0 16.5523 0 16V10Z" fill="#C4C4C4"/>
<path d="M18 10C18 9.44772 18.4477 9 19 9H25C25.5523 9 26 9.44772 26 10V16C26 16.5523 25.5523 17 25 17H19C18.4477 17 18 16.5523 18 16V10Z" fill="#C4C4C4"/>
<path d="M9 10C9 9.44772 9.44772 9 10 9H16C16.5523 9 17 9.44772 17 10V16C17 16.5523 16.5523 17 16 17H10C9.44772 17 9 16.5523 9 16V10Z" fill="#C4C4C4"/>
</svg>
