<svg width="27" height="24" viewBox="0 0 27 24" fill="none" xmlns="http://www.w3.org/2000/svg">
<path d="M0 19C0 18.4477 0.447715 18 1 18H5C5.55228 18 6 18.4477 6 19V23C6 23.5523 5.55228 24 5 24H1C0.447715 24 0 23.5523 0 23V19Z" fill="#C4C4C4"/>
<path d="M0 1C0 0.447715 0.447715 0 1 0H5C5.55228 0 6 0.447715 6 1V5C6 5.55228 5.55228 6 5 6H1C0.447715 6 0 5.55228 0 5V1Z" fill="#C4C4C4"/>
<path d="M0 10C0 9.44772 0.447715 9 1 9H5C5.55228 9 6 9.44772 6 10V14C6 14.5523 5.55228 15 5 15H1C0.447715 15 0 14.5523 0 14V10Z" fill="#C4C4C4"/>
<rect x="9" y="1" width="18" height="4" rx="1" fill="#C4C4C4"/>
<rect x="9" y="19" width="18" height="4" rx="1" fill="#C4C4C4"/>
<rect x="9" y="10" width="18" height="4" rx="1" fill="#C4C4C4"/>
</svg>
